<svg width="45" height="45" viewBox="0 0 45 45" fill="none" xmlns="http://www.w3.org/2000/svg">
<path d="M25.9314 35.6264C25.6513 35.6273 25.3745 35.5655 25.1214 35.4454C24.8683 35.3254 24.6453 35.1502 24.4689 34.9326L15.4126 23.6826C15.1368 23.3471 14.9861 22.9263 14.9861 22.492C14.9861 22.0577 15.1368 21.6369 15.4126 21.3014L24.7876 10.0514C25.1059 9.66847 25.5632 9.42767 26.059 9.38196C26.5548 9.33625 27.0485 9.48936 27.4314 9.80762C27.8143 10.1259 28.0551 10.5832 28.1008 11.079C28.1465 11.5748 27.9934 12.0685 27.6751 12.4514L19.2939 22.5014L27.3939 32.5514C27.6232 32.8266 27.7688 33.1617 27.8136 33.5171C27.8583 33.8725 27.8004 34.2333 27.6465 34.5568C27.4927 34.8803 27.2494 35.153 26.9454 35.3425C26.6415 35.532 26.2896 35.6306 25.9314 35.6264Z" fill="white"/>
</svg>
