<svg width="214" height="203" viewBox="0 0 214 203" fill="none" xmlns="http://www.w3.org/2000/svg">
<rect width="214" height="203" fill="#1E1E1E"/>
<rect x="-1914" y="-420" width="4320" height="3936" fill="white"/>
<rect x="-99" y="-131" width="412" height="892" rx="18" fill="#FEFDFB"/>
<rect x="-103" y="-135" width="420" height="900" rx="22" stroke="#747775" stroke-opacity="0.5" stroke-width="8"/>
<path d="M0 69.6933C0 33.532 23.9912 0 56.8438 0C79.6413 0 96.558 15.0447 107 36.3865C117.441 15.046 134.358 0 157.156 0C190.012 0 214 33.538 214 69.6933C214 147.092 107 202.111 107 202.111C107 202.111 0 150.421 0 69.6933Z" fill="#FFB5B6"/>
<path d="M173.949 84.4822L161.369 81.0976L178.488 62.5617C178.845 62.1678 178.812 61.4471 178.429 61.3442L156.53 55.4523C156.37 55.4092 156.181 55.4971 156.043 55.6911L130.868 90.2913C130.568 90.7006 130.629 91.3366 130.983 91.4318L140.942 94.1112L127.542 123.568C127.253 124.211 127.662 124.83 128.123 124.436L173.946 85.7478C174.356 85.4053 174.361 84.5928 173.949 84.4822Z" fill="#FFDBAB"/>
<path d="M83.2077 74.6142L70.7383 78.3857L75.6031 54.0061C75.7008 53.4915 75.2961 52.9092 74.9168 53.0239L53.2099 59.5894C53.0514 59.6373 52.9366 59.8093 52.9208 60.0429L49.6045 102.002C49.5635 102.5 49.9485 102.997 50.2994 102.89L60.1709 99.9048L64.18 131.421C64.2703 132.107 64.9418 132.408 65.1281 131.839L83.8665 75.6688C84.0366 75.1689 83.6153 74.4909 83.2077 74.6142Z" fill="#FFDBAB"/>
</svg>
