<svg width="214" height="203" viewBox="0 0 214 203" fill="none" xmlns="http://www.w3.org/2000/svg">
<g id="Group 15">
<g id="Group 16">
<g id="&#240;&#159;&#166;&#134; icon &#34;Heart&#34;">
<path id="Vector" d="M0 69.6933C0 33.532 23.9912 0 56.8438 0C79.6413 0 96.558 15.0447 107 36.3865C117.441 15.046 134.358 0 157.156 0C190.012 0 214 33.538 214 69.6933C214 147.092 107 202.111 107 202.111C107 202.111 0 150.421 0 69.6933Z" fill="white"/>
</g>
<g id="&#240;&#159;&#166;&#134; icon &#34;thunderbolt&#34;">
<path id="Vector_2" d="M173.95 84.4821L161.37 81.0975L178.488 62.5616C178.845 62.1677 178.812 61.447 178.429 61.344L156.53 55.4521C156.37 55.4091 156.181 55.497 156.043 55.691L130.868 90.2911C130.568 90.7004 130.629 91.3365 130.983 91.4317L140.942 94.1111L127.542 123.568C127.253 124.211 127.662 124.83 128.123 124.436L173.946 85.7477C174.356 85.4052 174.361 84.5927 173.95 84.4821Z" fill="#FFDBAB"/>
</g>
<g id="&#240;&#159;&#166;&#134; icon &#34;thunderbolt&#34;_2">
<path id="Vector_3" d="M83.2076 74.6144L70.7382 78.3859L75.603 54.0064C75.7007 53.4918 75.2959 52.9094 74.9167 53.0241L53.2098 59.5896C53.0513 59.6375 52.9365 59.8095 52.9207 60.0431L49.6044 102.003C49.5634 102.5 49.9484 102.997 50.2993 102.891L60.1707 99.905L64.1799 131.421C64.2701 132.108 64.9417 132.408 65.128 131.839L83.8664 75.6691C84.0365 75.1692 83.6152 74.4912 83.2076 74.6144Z" fill="#FFDBAB"/>
</g>
</g>
</g>
</svg>
